<svg width="1200" height="1200" viewBox="0 0 1200 1200" fill="none" xmlns="http://www.w3.org/2000/svg" role="img" aria-labelledby="title desc">
  <title id="title">Gantt chart symbol</title>
  <desc id="desc">A blue gantt chart symbol inspired by mikuproject WBS chart output.</desc>
  <defs>
    <linearGradient id="panel" x1="215" y1="193" x2="986" y2="1007" gradientUnits="userSpaceOnUse">
      <stop offset="0" stop-color="#6D9DE8"/>
      <stop offset="1" stop-color="#3D6FBC"/>
    </linearGradient>
    <linearGradient id="bar" x1="422" y1="483" x2="828" y2="761" gradientUnits="userSpaceOnUse">
      <stop offset="0" stop-color="#B8D2FF"/>
      <stop offset="1" stop-color="#7FAAF4"/>
    </linearGradient>
    <filter id="shadow" x="164" y="156" width="872" height="900" filterUnits="userSpaceOnUse" color-interpolation-filters="sRGB">
      <feFlood flood-opacity="0" result="BackgroundImageFix"/>
      <feColorMatrix in="SourceAlpha" type="matrix" values="0 0 0 0 0 0 0 0 0 0 0 0 0 0 0 0 0 0 127 0" result="hardAlpha"/>
      <feOffset dy="20"/>
      <feGaussianBlur stdDeviation="26"/>
      <feComposite in2="hardAlpha" operator="out"/>
      <feColorMatrix type="matrix" values="0 0 0 0 0.239216 0 0 0 0 0.435294 0 0 0 0 0.737255 0 0 0 0.22 0"/>
      <feBlend mode="normal" in2="BackgroundImageFix" result="effect1_dropShadow_1_1"/>
      <feBlend mode="normal" in="SourceGraphic" in2="effect1_dropShadow_1_1" result="shape"/>
    </filter>
  </defs>

  <g filter="url(#shadow)">
    <rect x="216" y="208" width="768" height="784" rx="154" fill="url(#panel)"/>
    <rect x="298" y="290" width="604" height="620" rx="72" fill="#F8FBFF" fill-opacity="0.94"/>

    <rect x="298" y="290" width="604" height="126" rx="72" fill="#456FB7"/>
    <rect x="354" y="340" width="388" height="28" rx="14" fill="#E7F0FF" fill-opacity="0.95"/>
    <circle cx="814" cy="354" r="20" fill="#E7F0FF"/>
    <circle cx="750" cy="354" r="20" fill="#C8DAFF"/>

    <g stroke="#9FB9EA" stroke-width="10" stroke-linecap="round" opacity="0.8">
      <path d="M382 470V850"/>
      <path d="M474 470V850"/>
      <path d="M566 470V850"/>
      <path d="M658 470V850"/>
      <path d="M750 470V850"/>
      <path d="M842 470V850"/>
    </g>

    <g fill="#89AEEA" fill-opacity="0.28">
      <rect x="340" y="488" width="520" height="74" rx="26"/>
      <rect x="340" y="618" width="520" height="74" rx="26"/>
      <rect x="340" y="748" width="520" height="74" rx="26"/>
    </g>

    <g fill="url(#bar)">
      <rect x="390" y="498" width="262" height="54" rx="20"/>
      <rect x="474" y="628" width="286" height="54" rx="20"/>
      <rect x="566" y="758" width="202" height="54" rx="20"/>
    </g>

    <g fill="#325B9E">
      <circle cx="390" cy="525" r="17"/>
      <circle cx="474" cy="655" r="17"/>
      <circle cx="566" cy="785" r="17"/>
    </g>
  </g>
</svg>
