<svg width="1200" height="1200" viewBox="0 0 1200 1200" fill="none" xmlns="http://www.w3.org/2000/svg" role="img" aria-labelledby="title desc">
  <title id="title">Mermaid symbol</title>
  <desc id="desc">A diagram-style mermaid symbol with connected nodes inspired by mikuproject Mermaid output.</desc>
  <defs>
    <linearGradient id="panel" x1="214" y1="194" x2="987" y2="1010" gradientUnits="userSpaceOnUse">
      <stop offset="0" stop-color="#2F8AA0"/>
      <stop offset="1" stop-color="#1E5F73"/>
    </linearGradient>
    <linearGradient id="sheet" x1="324" y1="322" x2="864" y2="894" gradientUnits="userSpaceOnUse">
      <stop offset="0" stop-color="#F8FEFF"/>
      <stop offset="1" stop-color="#DCEFF4"/>
    </linearGradient>
    <linearGradient id="node" x1="422" y1="510" x2="770" y2="782" gradientUnits="userSpaceOnUse">
      <stop offset="0" stop-color="#A8DCE8"/>
      <stop offset="1" stop-color="#6AB2C6"/>
    </linearGradient>
    <filter id="shadow" x="164" y="156" width="872" height="900" filterUnits="userSpaceOnUse" color-interpolation-filters="sRGB">
      <feFlood flood-opacity="0" result="BackgroundImageFix"/>
      <feColorMatrix in="SourceAlpha" type="matrix" values="0 0 0 0 0 0 0 0 0 0 0 0 0 0 0 0 0 0 127 0" result="hardAlpha"/>
      <feOffset dy="20"/>
      <feGaussianBlur stdDeviation="26"/>
      <feComposite in2="hardAlpha" operator="out"/>
      <feColorMatrix type="matrix" values="0 0 0 0 0.117647 0 0 0 0 0.372549 0 0 0 0 0.45098 0 0 0 0.2 0"/>
      <feBlend mode="normal" in2="BackgroundImageFix" result="effect1_dropShadow_1_1"/>
      <feBlend mode="normal" in="SourceGraphic" in2="effect1_dropShadow_1_1" result="shape"/>
    </filter>
  </defs>

  <g filter="url(#shadow)">
    <rect x="216" y="208" width="768" height="784" rx="154" fill="url(#panel)"/>
    <rect x="314" y="296" width="572" height="612" rx="72" fill="url(#sheet)"/>

    <rect x="314" y="296" width="572" height="136" rx="72" fill="#206579"/>
    <rect x="382" y="348" width="182" height="30" rx="15" fill="#E8F8FB" fill-opacity="0.96"/>
    <circle cx="794" cy="364" r="20" fill="#E8F8FB"/>
    <circle cx="730" cy="364" r="20" fill="#BEE3EC"/>

    <g stroke="#5D9FB0" stroke-width="16" stroke-linecap="round" stroke-linejoin="round">
      <path d="M450 560H750"/>
      <path d="M450 560L390 674"/>
      <path d="M750 560L810 674"/>
      <path d="M600 560V762"/>
      <path d="M390 674H810"/>
    </g>

    <g fill="url(#node)">
      <rect x="454" y="504" width="292" height="112" rx="34"/>
      <rect x="312" y="618" width="156" height="112" rx="34"/>
      <rect x="522" y="706" width="156" height="112" rx="34"/>
      <rect x="732" y="618" width="156" height="112" rx="34"/>
    </g>

    <g fill="#205C6D">
      <rect x="514" y="548" width="172" height="24" rx="12"/>
      <rect x="348" y="662" width="84" height="24" rx="12"/>
      <rect x="558" y="750" width="84" height="24" rx="12"/>
      <rect x="768" y="662" width="84" height="24" rx="12"/>
    </g>

    <g fill="#EAF8FB">
      <circle cx="408" cy="674" r="12"/>
      <circle cx="600" cy="762" r="12"/>
      <circle cx="792" cy="674" r="12"/>
    </g>
  </g>
</svg>
