<svg width="1200" height="1200" viewBox="0 0 1200 1200" fill="none" xmlns="http://www.w3.org/2000/svg" role="img" aria-labelledby="title desc">
  <title id="title">Monthly calendar symbol</title>
  <desc id="desc">A monthly calendar symbol in warm orange inspired by mikuproject monthly calendar output.</desc>
  <defs>
    <linearGradient id="panel" x1="214" y1="194" x2="987" y2="1009" gradientUnits="userSpaceOnUse">
      <stop offset="0" stop-color="#F6A46F"/>
      <stop offset="1" stop-color="#D86E32"/>
    </linearGradient>
    <linearGradient id="cell" x1="340" y1="462" x2="860" y2="858" gradientUnits="userSpaceOnUse">
      <stop offset="0" stop-color="#FFF1E8"/>
      <stop offset="1" stop-color="#FAD1BA"/>
    </linearGradient>
    <filter id="shadow" x="164" y="156" width="872" height="900" filterUnits="userSpaceOnUse" color-interpolation-filters="sRGB">
      <feFlood flood-opacity="0" result="BackgroundImageFix"/>
      <feColorMatrix in="SourceAlpha" type="matrix" values="0 0 0 0 0 0 0 0 0 0 0 0 0 0 0 0 0 0 127 0" result="hardAlpha"/>
      <feOffset dy="20"/>
      <feGaussianBlur stdDeviation="26"/>
      <feComposite in2="hardAlpha" operator="out"/>
      <feColorMatrix type="matrix" values="0 0 0 0 0.847059 0 0 0 0 0.431373 0 0 0 0 0.196078 0 0 0 0.2 0"/>
      <feBlend mode="normal" in2="BackgroundImageFix" result="effect1_dropShadow_1_1"/>
      <feBlend mode="normal" in="SourceGraphic" in2="effect1_dropShadow_1_1" result="shape"/>
    </filter>
  </defs>

  <g filter="url(#shadow)">
    <rect x="216" y="208" width="768" height="784" rx="154" fill="url(#panel)"/>
    <rect x="298" y="290" width="604" height="620" rx="72" fill="#FFF9F5" fill-opacity="0.94"/>

    <rect x="298" y="290" width="604" height="138" rx="72" fill="#F28C52"/>
    <rect x="360" y="344" width="230" height="30" rx="15" fill="#FFF2E9" fill-opacity="0.96"/>
    <circle cx="810" cy="359" r="20" fill="#FFF2E9"/>
    <circle cx="746" cy="359" r="20" fill="#FFD9C2"/>

    <g fill="#F1B896" opacity="0.55">
      <rect x="346" y="474" width="70" height="28" rx="14"/>
      <rect x="432" y="474" width="70" height="28" rx="14"/>
      <rect x="518" y="474" width="70" height="28" rx="14"/>
      <rect x="604" y="474" width="70" height="28" rx="14"/>
      <rect x="690" y="474" width="70" height="28" rx="14"/>
      <rect x="776" y="474" width="70" height="28" rx="14"/>
    </g>

    <g fill="url(#cell)">
      <rect x="346" y="528" width="128" height="94" rx="24"/>
      <rect x="489" y="528" width="128" height="94" rx="24"/>
      <rect x="632" y="528" width="128" height="94" rx="24"/>
      <rect x="775" y="528" width="71" height="94" rx="24"/>

      <rect x="346" y="638" width="128" height="94" rx="24"/>
      <rect x="489" y="638" width="128" height="94" rx="24"/>
      <rect x="632" y="638" width="128" height="94" rx="24"/>
      <rect x="775" y="638" width="71" height="94" rx="24"/>

      <rect x="346" y="748" width="128" height="94" rx="24"/>
      <rect x="489" y="748" width="128" height="94" rx="24"/>
      <rect x="632" y="748" width="128" height="94" rx="24"/>
      <rect x="775" y="748" width="71" height="94" rx="24"/>
    </g>

    <rect x="632" y="638" width="128" height="94" rx="24" fill="#F9D5C1"/>
    <rect x="489" y="748" width="128" height="94" rx="24" fill="#F28C52" fill-opacity="0.32"/>

    <g fill="#A75425">
      <circle cx="408" cy="575" r="10"/>
      <circle cx="551" cy="575" r="10"/>
      <circle cx="694" cy="685" r="10"/>
      <circle cx="551" cy="795" r="10"/>
    </g>
  </g>
</svg>
